<svg width="848" height="138" viewBox="0 0 848 138" fill="none" xmlns="http://www.w3.org/2000/svg">
<g clip-path="url(#clip0_2033_108)">
<path d="M429.66 63.08V59.48C429.66 58.33 428.84 57.55 427.63 57.55C427.5 57.55 427.33 57.55 427.16 57.55C426.95 57.55 426.73 57.55 426.54 57.55C426.35 57.55 426.18 57.55 426.04 57.56H393.78V51.66H420.37C428.84 51.66 435.73 44.77 435.73 36.3C435.73 27.83 428.84 20.94 420.37 20.94C420.26 20.94 420.15 20.94 420.04 20.94C418.91 14.61 413.41 9.95 406.9 9.95C404.21 9.95 401.6 10.76 399.4 12.26C398.31 9.26 396.48 6.6 394.04 4.5C390.67 1.6 386.35 0 381.9 0C371.63 0 363.28 8.35 363.28 18.62C363.28 19.39 363.33 20.17 363.43 20.94C363.34 20.94 363.26 20.94 363.17 20.94C354.7 20.94 347.81 27.83 347.81 36.3C347.81 44.77 354.7 51.66 363.17 51.66H389.73V57.56H359.27C359.02 57.52 358.78 57.52 358.62 57.52C358.22 57.52 357.69 57.53 357.24 57.55C356.92 57.55 356.64 57.57 356.48 57.57C355.28 57.57 354.45 58.38 354.45 59.55V63.09C351.76 63.96 349.89 66.47 349.89 69.36C349.89 73 352.85 75.95 356.48 75.95C360.11 75.95 363.07 72.99 363.07 69.36C363.07 66.48 361.2 63.96 358.51 63.09V61.63H371.36V72.92C368.67 73.79 366.8 76.3 366.8 79.19C366.8 82.83 369.76 85.78 373.39 85.78C377.02 85.78 379.98 82.82 379.98 79.19C379.98 76.31 378.11 73.79 375.42 72.92V61.63H389.73V72.92C387.04 73.79 385.17 76.3 385.17 79.19C385.17 82.83 388.13 85.78 391.76 85.78C395.39 85.78 398.35 82.82 398.35 79.19C398.35 76.31 396.48 73.79 393.79 72.92V61.63H408.11V72.92C405.42 73.79 403.55 76.3 403.55 79.19C403.55 82.83 406.51 85.78 410.14 85.78C413.77 85.78 416.73 82.82 416.73 79.19C416.73 76.31 414.86 73.79 412.17 72.92V61.63H425.6V63.09C422.91 63.96 421.04 66.47 421.04 69.36C421.04 73 424 75.95 427.63 75.95C431.26 75.95 434.22 72.99 434.22 69.36C434.22 66.48 432.35 63.96 429.66 63.09V63.08ZM359.51 69.35C359.51 71.04 358.14 72.41 356.45 72.41C354.76 72.41 353.39 71.04 353.39 69.35C353.39 67.66 354.76 66.29 356.45 66.29C358.14 66.29 359.51 67.66 359.51 69.35ZM376.6 79.19C376.6 80.97 375.15 82.42 373.37 82.42C371.59 82.42 370.14 80.97 370.14 79.19C370.14 77.41 371.59 75.96 373.37 75.96C375.15 75.96 376.6 77.41 376.6 79.19ZM394.97 79.19C394.97 80.97 393.52 82.42 391.74 82.42C389.96 82.42 388.51 80.97 388.51 79.19C388.51 77.41 389.96 75.96 391.74 75.96C393.52 75.96 394.97 77.41 394.97 79.19ZM363.15 47.6C356.92 47.6 351.86 42.53 351.86 36.31C351.86 30.09 356.93 25.02 363.15 25.02C363.95 25.02 364.75 25.11 365.54 25.28C365.68 25.31 365.82 25.33 365.97 25.33C366.53 25.33 367.07 25.09 367.46 24.68C367.94 24.16 368.12 23.41 367.92 22.73C367.53 21.4 367.33 20.03 367.33 18.64C367.33 10.61 373.86 4.09 381.88 4.09C389.08 4.09 395.12 9.24 396.25 16.33C396.37 17.11 396.95 17.75 397.71 17.97C397.89 18.02 398.07 18.05 398.26 18.05C398.86 18.05 399.42 17.79 399.81 17.33C401.58 15.25 404.16 14.05 406.89 14.05C411.94 14.05 416.1 18.16 416.18 23.2C416.18 23.79 416.45 24.35 416.91 24.73C417.27 25.04 417.74 25.2 418.22 25.2C418.33 25.2 418.43 25.2 418.54 25.17C419.15 25.07 419.77 25.02 420.37 25.02C426.6 25.02 431.66 30.09 431.66 36.31C431.66 42.53 426.59 47.6 420.37 47.6H363.16H363.15ZM413.36 79.19C413.36 80.97 411.91 82.42 410.13 82.42C408.35 82.42 406.9 80.97 406.9 79.19C406.9 77.41 408.35 75.96 410.13 75.96C411.91 75.96 413.36 77.41 413.36 79.19ZM427.63 72.71C425.78 72.71 424.27 71.2 424.27 69.35C424.27 67.5 425.78 65.99 427.63 65.99C429.48 65.99 430.99 67.5 430.99 69.35C430.99 71.2 429.48 72.71 427.63 72.71Z" fill="#F5E1A4"/>
<path d="M366.34 24.23C366.34 24.23 366.39 24.21 366.41 24.2C366.39 24.21 366.36 24.22 366.34 24.23Z" fill="#F5E1A4"/>
<path d="M418.21 24.18C418.15 24.18 418.09 24.16 418.03 24.15C418.14 24.17 418.26 24.19 418.38 24.17C418.33 24.17 418.27 24.18 418.22 24.18H418.21Z" fill="#F5E1A4"/>
<path d="M398.65 16.94C398.65 16.94 398.71 16.91 398.73 16.9C398.7 16.91 398.68 16.93 398.65 16.94Z" fill="#F5E1A4"/>
<path d="M365.98 24.3C365.98 24.3 365.97 24.3 365.96 24.3C365.89 24.3 365.81 24.3 365.74 24.28C365.82 24.3 365.9 24.3 365.98 24.3Z" fill="#F5E1A4"/>
<path d="M426.37 58.55C426.26 58.55 426.15 58.55 426.08 58.56C426.16 58.56 426.26 58.55 426.37 58.55Z" fill="#F5E1A4"/>
<path d="M359.04 58.53C358.92 58.52 358.73 58.52 358.49 58.52H358.58C358.78 58.52 358.93 58.52 359.03 58.53H359.04Z" fill="#F5E1A4"/>
<path d="M359.17 58.56C359.17 58.56 359.13 58.54 359.09 58.53C359.14 58.53 359.17 58.54 359.17 58.56Z" fill="#F5E1A4"/>
<path d="M82.49 24.86L68.6 67.69H55.63L47.43 41.62L38.86 67.69H25.89L12 24.86H24.48L33.11 52.21L42.17 24.86H53.31L61.94 52.45L70.93 24.86H82.49Z" fill="#F5E1A4"/>
<path d="M90.8699 67.27C87.6099 66.41 84.9499 65.27 82.9199 63.84L86.8999 54.91C88.8199 56.17 91.0399 57.2 93.5699 57.97C96.0999 58.75 98.5899 59.13 101.03 59.13C105.68 59.13 108.01 57.97 108.01 55.64C108.01 54.42 107.35 53.51 106.02 52.92C104.69 52.33 102.56 51.71 99.6299 51.05C96.4099 50.36 93.7099 49.61 91.5499 48.82C89.3899 48.02 87.5299 46.75 85.9799 45C84.4299 43.25 83.6499 40.88 83.6499 37.9C83.6499 35.29 84.3599 32.93 85.7899 30.83C87.2199 28.73 89.3499 27.07 92.1799 25.84C95.0099 24.62 98.4899 24 102.61 24C105.42 24 108.2 24.32 110.93 24.95C113.66 25.58 116.07 26.51 118.15 27.73L114.42 36.73C110.34 34.53 106.38 33.43 102.55 33.43C100.14 33.43 98.3899 33.79 97.2899 34.5C96.1899 35.21 95.6399 36.14 95.6399 37.28C95.6399 38.42 96.2899 39.28 97.5999 39.85C98.8999 40.42 101.01 41.01 103.9 41.62C107.16 42.31 109.87 43.06 112.01 43.85C114.15 44.64 116.01 45.91 117.58 47.64C119.15 49.37 119.94 51.73 119.94 54.71C119.94 57.28 119.23 59.61 117.8 61.69C116.37 63.77 114.23 65.43 111.38 66.68C108.52 67.92 105.06 68.55 100.98 68.55C97.5099 68.55 94.1499 68.12 90.8799 67.26L90.8699 67.27Z" fill="#F5E1A4"/>
<path d="M133.09 34.47H119.93V24.86H158.29V34.47H145.2V67.69H133.09V34.47Z" fill="#F5E1A4"/>
<path d="M180.63 56.31H174.02V67.69H161.91V24.86H181.49C185.36 24.86 188.73 25.5 191.59 26.79C194.44 28.08 196.65 29.91 198.2 32.3C199.75 34.69 200.53 37.49 200.53 40.71C200.53 43.93 199.81 46.51 198.36 48.82C196.91 51.12 194.84 52.93 192.15 54.24L201.39 67.7H188.42L180.65 56.32L180.63 56.31ZM186.38 36.06C185.11 34.96 183.24 34.41 180.75 34.41H174.02V46.95H180.75C183.24 46.95 185.11 46.41 186.38 45.33C187.64 44.25 188.28 42.71 188.28 40.71C188.28 38.71 187.65 37.16 186.38 36.06Z" fill="#F5E1A4"/>
<path d="M240.65 58.33V67.69H206.26V24.86H239.85V34.22H218.25V41.44H237.28V50.5H218.25V58.33H240.64H240.65Z" fill="#F5E1A4"/>
<path d="M280.85 58.33V67.69H246.46V24.86H280.05V34.22H258.45V41.44H277.48V50.5H258.45V58.33H280.84H280.85Z" fill="#F5E1A4"/>
<path d="M295.78 34.47H282.62V24.86H320.98V34.47H307.89V67.69H295.78V34.47Z" fill="#F5E1A4"/>
<path d="M470.95 64.27C467.69 63.41 465.03 62.27 463 60.84L466.98 51.91C468.9 53.17 471.12 54.2 473.65 54.97C476.18 55.75 478.67 56.13 481.11 56.13C485.76 56.13 488.09 54.97 488.09 52.64C488.09 51.42 487.43 50.51 486.1 49.92C484.77 49.33 482.64 48.71 479.71 48.05C476.49 47.36 473.79 46.61 471.63 45.82C469.47 45.02 467.61 43.75 466.06 42C464.51 40.25 463.73 37.88 463.73 34.9C463.73 32.29 464.44 29.93 465.87 27.83C467.3 25.73 469.43 24.07 472.26 22.84C475.09 21.62 478.57 21 482.69 21C485.5 21 488.28 21.32 491.01 21.95C493.74 22.58 496.15 23.51 498.23 24.73L494.5 33.73C490.42 31.53 486.46 30.43 482.63 30.43C480.22 30.43 478.47 30.79 477.37 31.5C476.27 32.21 475.72 33.14 475.72 34.28C475.72 35.42 476.37 36.28 477.68 36.85C478.98 37.42 481.09 38.01 483.98 38.62C487.24 39.31 489.95 40.06 492.09 40.85C494.23 41.64 496.09 42.91 497.66 44.64C499.23 46.37 500.02 48.73 500.02 51.71C500.02 54.28 499.31 56.61 497.88 58.69C496.45 60.77 494.31 62.43 491.46 63.68C488.6 64.92 485.14 65.55 481.06 65.55C477.59 65.55 474.23 65.12 470.96 64.26L470.95 64.27Z" fill="#F5E1A4"/>
<path d="M543.33 64.69L543.21 41.99L532.2 60.47H526.82L515.87 42.6V64.69H504.67V21.86H514.64L529.69 46.58L544.38 21.86H554.35L554.47 64.69H543.33Z" fill="#F5E1A4"/>
<path d="M590.81 56.37H572.7L569.33 64.69H556.97L575.88 21.86H587.81L606.78 64.69H594.18L590.81 56.37ZM587.26 47.44L581.75 33.73L576.24 47.44H587.25H587.26Z" fill="#F5E1A4"/>
<path d="M628.01 53.31H621.4V64.69H609.28V21.86H628.86C632.73 21.86 636.1 22.5 638.96 23.79C641.81 25.08 644.02 26.91 645.57 29.3C647.12 31.69 647.9 34.49 647.9 37.71C647.9 40.93 647.18 43.51 645.73 45.82C644.28 48.12 642.21 49.93 639.52 51.24L648.76 64.7H635.79L628.02 53.32L628.01 53.31ZM633.76 33.06C632.5 31.96 630.62 31.41 628.13 31.41H621.4V43.95H628.13C630.62 43.95 632.49 43.41 633.76 42.33C635.02 41.25 635.66 39.71 635.66 37.71C635.66 35.71 635.03 34.16 633.76 33.06Z" fill="#F5E1A4"/>
<path d="M662.15 31.47H648.99V21.86H687.35V31.47H674.26V64.69H662.14V31.47H662.15Z" fill="#F5E1A4"/>
<path d="M707.86 21.86H719.98V55.09H740.42V64.7H707.87V21.86H707.86Z" fill="#F5E1A4"/>
<path d="M773.45 56.37H755.34L751.97 64.69H739.61L758.52 21.86H770.45L789.42 64.69H776.82L773.45 56.37ZM769.9 47.44L764.39 33.73L758.88 47.44H769.89H769.9Z" fill="#F5E1A4"/>
<path d="M830.6 46.37C831.99 48.19 832.68 50.38 832.68 52.95C832.68 56.7 831.17 59.6 828.15 61.64C825.13 63.68 820.77 64.7 815.06 64.7H791.93V21.86H813.83C819.3 21.86 823.46 22.87 826.31 24.89C829.16 26.91 830.59 29.63 830.59 33.06C830.59 35.1 830.09 36.93 829.09 38.54C828.09 40.15 826.67 41.43 824.84 42.36C827.29 43.22 829.2 44.55 830.59 46.37H830.6ZM803.92 30.61V38.87H812.24C816.32 38.87 818.36 37.48 818.36 34.71C818.36 31.94 816.32 30.61 812.24 30.61H803.92ZM820.44 51.6C820.44 48.7 818.32 47.26 814.08 47.26H803.92V55.95H814.08C818.32 55.95 820.44 54.5 820.44 51.61V51.6Z" fill="#F5E1A4"/>
<path d="M234.66 101.19L227.46 122.55H225.08L218.83 104.34L212.55 122.55H210.2L203 101.19H205.32L211.48 119.56L217.86 101.19H219.96L226.24 119.65L232.49 101.19H234.66Z" fill="#F5E1A4"/>
<path d="M253.42 120.59V122.54H238.32V101.18H252.96V103.13H240.57V110.73H251.61V112.65H240.57V120.58H253.41L253.42 120.59Z" fill="#F5E1A4"/>
<path d="M265.81 101.19H268.07V120.59H280.03V122.54H265.81V101.18V101.19Z" fill="#F5E1A4"/>
<path d="M286.48 121.31C284.76 120.36 283.42 119.07 282.45 117.42C281.48 115.77 281 113.92 281 111.87C281 109.82 281.48 107.96 282.45 106.32C283.42 104.67 284.76 103.38 286.48 102.43C288.2 101.48 290.12 101.01 292.23 101.01C294.34 101.01 296.25 101.48 297.95 102.41C299.65 103.35 300.99 104.64 301.96 106.3C302.94 107.96 303.42 109.81 303.42 111.87C303.42 113.93 302.93 115.78 301.96 117.44C300.98 119.1 299.65 120.4 297.95 121.33C296.25 122.27 294.34 122.73 292.23 122.73C290.12 122.73 288.2 122.26 286.48 121.31ZM296.81 119.57C298.17 118.81 299.24 117.75 300.01 116.4C300.78 115.05 301.17 113.54 301.17 111.87C301.17 110.2 300.78 108.69 300.01 107.34C299.24 105.99 298.17 104.93 296.81 104.17C295.45 103.41 293.92 103.03 292.23 103.03C290.54 103.03 289.01 103.41 287.64 104.17C286.27 104.93 285.19 105.99 284.41 107.34C283.63 108.69 283.24 110.2 283.24 111.87C283.24 113.54 283.63 115.05 284.41 116.4C285.19 117.75 286.27 118.81 287.64 119.57C289.01 120.33 290.54 120.71 292.23 120.71C293.92 120.71 295.44 120.33 296.81 119.57Z" fill="#F5E1A4"/>
<path d="M325.15 101.19L315.69 122.55H313.46L304 101.19H306.44L314.62 119.74L322.86 101.19H325.15Z" fill="#F5E1A4"/>
<path d="M342.87 120.59V122.54H327.77V101.18H342.41V103.13H330.02V110.73H341.06V112.65H330.02V120.58H342.86L342.87 120.59Z" fill="#F5E1A4"/>
<path d="M359.41 103.14H351.91V101.19H369.18V103.14H361.68V122.54H359.42V103.14H359.41Z" fill="#F5E1A4"/>
<path d="M387.41 120.59V122.54H372.31V101.18H386.95V103.13H374.56V110.73H385.6V112.65H374.56V120.58H387.4L387.41 120.59Z" fill="#F5E1A4"/>
<path d="M395.7 121.32C394 120.39 392.67 119.09 391.7 117.43C390.73 115.77 390.25 113.92 390.25 111.86C390.25 109.8 390.73 107.95 391.7 106.29C392.67 104.63 394 103.34 395.71 102.4C397.42 101.46 399.33 101 401.45 101C403.04 101 404.5 101.26 405.84 101.79C407.18 102.32 408.32 103.09 409.26 104.11L407.83 105.54C406.16 103.85 404.06 103.01 401.52 103.01C399.83 103.01 398.3 103.4 396.91 104.17C395.53 104.94 394.44 106 393.66 107.34C392.88 108.68 392.49 110.19 392.49 111.86C392.49 113.53 392.88 115.03 393.66 116.38C394.44 117.72 395.53 118.78 396.91 119.55C398.29 120.32 399.83 120.71 401.52 120.71C404.08 120.71 406.19 119.86 407.83 118.15L409.26 119.58C408.32 120.6 407.18 121.37 405.83 121.91C404.48 122.45 403.01 122.72 401.42 122.72C399.3 122.72 397.4 122.25 395.7 121.32Z" fill="#F5E1A4"/>
<path d="M431.47 101.19V122.55H429.24V112.7H415.88V122.55H413.62V101.19H415.88V110.71H429.24V101.19H431.47Z" fill="#F5E1A4"/>
<path d="M455.81 101.19V122.55H453.95L440.22 105.22V122.55H437.96V101.19H439.82L453.58 118.52V101.19H455.81Z" fill="#F5E1A4"/>
<path d="M465.89 121.31C464.17 120.36 462.83 119.07 461.86 117.42C460.89 115.77 460.41 113.92 460.41 111.87C460.41 109.82 460.89 107.96 461.86 106.32C462.83 104.68 464.17 103.38 465.89 102.43C467.61 101.48 469.53 101.01 471.64 101.01C473.75 101.01 475.66 101.48 477.36 102.41C479.06 103.34 480.4 104.64 481.37 106.3C482.35 107.96 482.83 109.81 482.83 111.87C482.83 113.93 482.34 115.78 481.37 117.44C480.39 119.1 479.06 120.4 477.36 121.33C475.66 122.27 473.76 122.73 471.64 122.73C469.52 122.73 467.61 122.26 465.89 121.31ZM476.22 119.57C477.58 118.81 478.65 117.75 479.42 116.4C480.19 115.05 480.58 113.54 480.58 111.87C480.58 110.2 480.19 108.69 479.42 107.34C478.65 105.99 477.58 104.93 476.22 104.17C474.86 103.41 473.33 103.03 471.64 103.03C469.95 103.03 468.42 103.41 467.05 104.17C465.68 104.93 464.6 105.99 463.82 107.34C463.04 108.69 462.65 110.2 462.65 111.87C462.65 113.54 463.04 115.05 463.82 116.4C464.6 117.75 465.68 118.81 467.05 119.57C468.42 120.33 469.95 120.71 471.64 120.71C473.33 120.71 474.85 120.33 476.22 119.57Z" fill="#F5E1A4"/>
<path d="M487.45 101.19H489.71V120.59H501.67V122.54H487.45V101.18V101.19Z" fill="#F5E1A4"/>
<path d="M508.12 121.31C506.4 120.36 505.06 119.07 504.09 117.42C503.12 115.77 502.64 113.92 502.64 111.87C502.64 109.82 503.12 107.96 504.09 106.32C505.06 104.68 506.4 103.38 508.12 102.43C509.84 101.48 511.76 101.01 513.87 101.01C515.98 101.01 517.89 101.48 519.59 102.41C521.29 103.34 522.63 104.64 523.6 106.3C524.58 107.96 525.06 109.81 525.06 111.87C525.06 113.93 524.57 115.78 523.6 117.44C522.62 119.1 521.29 120.4 519.59 121.33C517.89 122.27 515.99 122.73 513.87 122.73C511.75 122.73 509.84 122.26 508.12 121.31ZM518.45 119.57C519.81 118.81 520.88 117.75 521.65 116.4C522.42 115.05 522.81 113.54 522.81 111.87C522.81 110.2 522.42 108.69 521.65 107.34C520.88 105.99 519.81 104.93 518.45 104.17C517.09 103.41 515.56 103.03 513.87 103.03C512.18 103.03 510.65 103.41 509.28 104.17C507.91 104.93 506.83 105.99 506.05 107.34C505.27 108.69 504.88 110.2 504.88 111.87C504.88 113.54 505.27 115.05 506.05 116.4C506.83 117.75 507.91 118.81 509.28 119.57C510.65 120.33 512.18 120.71 513.87 120.71C515.56 120.71 517.08 120.33 518.45 119.57Z" fill="#F5E1A4"/>
<path d="M544.71 111.87H546.88V120.02C545.88 120.9 544.7 121.57 543.34 122.03C541.98 122.5 540.54 122.73 539.04 122.73C536.9 122.73 534.98 122.26 533.27 121.33C531.56 120.4 530.22 119.1 529.24 117.44C528.26 115.78 527.78 113.93 527.78 111.87C527.78 109.81 528.27 107.96 529.24 106.3C530.22 104.64 531.56 103.35 533.27 102.41C534.98 101.47 536.91 101.01 539.07 101.01C540.7 101.01 542.19 101.27 543.56 101.79C544.92 102.31 546.07 103.08 547.01 104.09L545.61 105.52C543.92 103.85 541.78 103.02 539.17 103.02C537.44 103.02 535.88 103.4 534.49 104.16C533.1 104.92 532 105.98 531.21 107.33C530.42 108.68 530.02 110.19 530.02 111.86C530.02 113.53 530.42 115.03 531.21 116.38C532 117.72 533.09 118.78 534.47 119.55C535.85 120.32 537.41 120.71 539.14 120.71C541.34 120.71 543.2 120.16 544.72 119.06V111.86L544.71 111.87Z" fill="#F5E1A4"/>
<path d="M552.79 101.19H555.05V122.55H552.79V101.19Z" fill="#F5E1A4"/>
<path d="M576.65 120.59V122.54H561.55V101.18H576.19V103.13H563.8V110.73H574.84V112.65H563.8V120.58H576.64L576.65 120.59Z" fill="#F5E1A4"/>
<path d="M582.83 121.96C581.38 121.45 580.25 120.78 579.46 119.95L580.34 118.21C581.11 118.98 582.14 119.61 583.42 120.09C584.7 120.57 586.02 120.81 587.39 120.81C589.3 120.81 590.73 120.46 591.69 119.76C592.65 119.06 593.12 118.15 593.12 117.03C593.12 116.18 592.86 115.49 592.34 114.99C591.82 114.48 591.19 114.09 590.43 113.82C589.68 113.55 588.63 113.25 587.29 112.92C585.68 112.51 584.4 112.12 583.45 111.75C582.49 111.37 581.67 110.8 580.99 110.03C580.31 109.26 579.97 108.21 579.97 106.89C579.97 105.81 580.26 104.83 580.82 103.95C581.38 103.07 582.26 102.36 583.44 101.83C584.62 101.3 586.08 101.04 587.83 101.04C589.05 101.04 590.25 101.21 591.41 101.54C592.58 101.88 593.59 102.34 594.45 102.93L593.69 104.73C592.8 104.14 591.84 103.7 590.82 103.4C589.8 103.11 588.81 102.96 587.83 102.96C585.96 102.96 584.55 103.32 583.61 104.04C582.66 104.76 582.19 105.69 582.19 106.83C582.19 107.68 582.45 108.37 582.97 108.89C583.49 109.41 584.14 109.81 584.92 110.08C585.7 110.35 586.75 110.66 588.08 110.98C589.65 111.37 590.91 111.75 591.88 112.12C592.85 112.5 593.66 113.07 594.34 113.83C595.01 114.59 595.35 115.62 595.35 116.93C595.35 118.01 595.06 118.99 594.48 119.87C593.9 120.75 593.01 121.46 591.81 121.98C590.61 122.5 589.14 122.76 587.39 122.76C585.8 122.76 584.28 122.51 582.83 122V121.96Z" fill="#F5E1A4"/>
</g>
<defs>
<clipPath id="clip0_2033_108">
<rect width="847.77" height="137.58" fill="white"/>
</clipPath>
</defs>
</svg>
