<svg width="38" height="38" viewBox="0 0 38 38" fill="none" xmlns="http://www.w3.org/2000/svg">
<path d="M34.4615 28.0075V26.13C34.4615 25.8335 34.2688 25.7304 34.03 25.7304C33.8457 25.7304 33.5232 25.7175 33.3807 25.7304H19.4273V22.3362H30.9846C34.3023 22.3362 37 19.5693 37 16.1665C37 12.7637 34.3023 9.99678 30.9846 9.99678C30.8213 9.99678 30.6537 10.0054 30.4862 10.0183C30.2055 7.36305 27.9937 5.27927 25.3421 5.27927C24.098 5.27927 22.9125 5.73469 21.9784 6.55102C21.593 5.11171 20.7929 3.81418 19.6786 2.83029C18.3423 1.64876 16.6332 1 14.8655 1C10.798 1.0043 7.48452 4.3985 7.48452 8.57465C7.48452 9.06445 7.5306 9.55424 7.62276 10.0311C7.42169 10.0097 7.22062 10.0011 7.01536 10.0011C3.6977 10.0011 1 12.768 1 16.1708C1 19.5736 3.6977 22.3405 7.01536 22.3405H18.5602V25.7347H5.35234C5.35234 25.6917 4.45171 25.7347 4.21294 25.7347C3.97417 25.7347 3.78148 25.8593 3.78148 26.1557V28.0118C2.69653 28.2223 1.87131 29.1976 1.87131 30.3706C1.87131 31.6939 2.92274 32.7723 4.21294 32.7723C5.50314 32.7723 6.55457 31.6939 6.55457 30.3706C6.55457 29.1976 5.72935 28.218 4.6444 28.0118V26.6198C4.67373 26.6198 4.70305 26.6241 4.73656 26.6241H10.865V32.2395C9.78008 32.4501 8.95485 33.4254 8.95485 34.5983C8.95485 35.9216 10.0063 37 11.2965 37C12.5867 37 13.6381 35.9216 13.6381 34.5983C13.6381 33.4254 12.8129 32.4458 11.7279 32.2395V26.6241H18.5602V32.2395C17.4752 32.4501 16.65 33.4254 16.65 34.5983C16.65 35.9216 17.7014 37 18.9916 37C20.2818 37 21.3333 35.9216 21.3333 34.5983C21.3333 33.4254 20.508 32.4458 19.4231 32.2395V26.6241H26.2595V32.2395C25.1745 32.4501 24.3493 33.4254 24.3493 34.5983C24.3493 35.9216 25.4007 37 26.6909 37C27.9811 37 29.0326 35.9216 29.0326 34.5983C29.0326 33.4254 28.2074 32.4458 27.1224 32.2395V26.6241H33.4017C33.4645 26.6241 33.5273 26.6198 33.586 26.6112V28.0118C32.501 28.2223 31.6758 29.1976 31.6758 30.3706C31.6758 31.6939 32.7272 32.7723 34.0175 32.7723C35.3077 32.7723 36.3591 31.6939 36.3591 30.3706C36.3591 29.1976 35.5339 28.218 34.4489 28.0118L34.4615 28.0075ZM1.86712 16.1708C1.86712 13.2578 4.17524 10.8904 7.01536 10.8904C7.3798 10.8904 7.74424 10.9291 8.10449 11.0107C8.25529 11.0451 8.41029 10.9936 8.51082 10.8776C8.61555 10.7615 8.65325 10.6026 8.61136 10.4522C8.43542 9.8421 8.34745 9.21053 8.34745 8.57465C8.34745 4.88829 11.2714 1.89366 14.8613 1.89366C18.0826 1.89366 20.7887 4.25671 21.2956 7.51772C21.3207 7.68958 21.4422 7.82707 21.6055 7.87433C21.7689 7.92159 21.9407 7.86574 22.0538 7.73255C22.8748 6.74006 24.0728 6.17293 25.3379 6.17293C27.6795 6.17293 29.6148 8.12782 29.6484 10.5295C29.6484 10.6584 29.707 10.7787 29.8034 10.8647C29.8997 10.9463 30.0254 10.985 30.151 10.9635C30.4275 10.9162 30.7082 10.8947 30.9846 10.8947C33.8248 10.8947 36.1329 13.2621 36.1329 16.1751C36.1329 19.0881 33.8248 21.4554 30.9846 21.4554H7.01955C4.17943 21.4554 1.87131 19.0881 1.87131 16.1751L1.86712 16.1708ZM12.7836 34.594C12.7836 35.4361 12.1175 36.1192 11.2965 36.1192C10.4754 36.1192 9.8094 35.4361 9.8094 34.594C9.8094 33.7519 10.4754 33.0687 11.2965 33.0687C12.1175 33.0687 12.7836 33.7519 12.7836 34.594ZM5.69583 30.3663C5.69583 31.2084 5.02979 31.8915 4.20875 31.8915C3.38771 31.8915 2.72167 31.2084 2.72167 30.3663C2.72167 29.5242 3.38771 28.841 4.20875 28.841C5.02979 28.841 5.69583 29.5242 5.69583 30.3663ZM20.4787 34.594C20.4787 35.4361 19.8127 36.1192 18.9916 36.1192C18.1706 36.1192 17.5045 35.4361 17.5045 34.594C17.5045 33.7519 18.1706 33.0687 18.9916 33.0687C19.8127 33.0687 20.4787 33.7519 20.4787 34.594ZM28.1822 34.594C28.1822 35.4361 27.5162 36.1192 26.6951 36.1192C25.8741 36.1192 25.208 35.4361 25.208 34.594C25.208 33.7519 25.8741 33.0687 26.6951 33.0687C27.5162 33.0687 28.1822 33.7519 28.1822 34.594ZM34.0258 31.8915C33.2048 31.8915 32.5387 31.2084 32.5387 30.3663C32.5387 29.5242 33.2048 28.841 34.0258 28.841C34.8469 28.841 35.5129 29.5242 35.5129 30.3663C35.5129 31.2084 34.8469 31.8915 34.0258 31.8915Z" fill="#F5E1A4" stroke="#F5E1A4"/>
</svg>
